# xmcd
#
# Track frame offsets:
# 150
# 15213
# 33032
# 53132
# 69435
# 86157
# 103827
# 120927
# 136511
# 150778
# 166990
# 182988
# 198300
# 218116
# 234026
# 253262
# 267479
# 283655
# 298600
# 314809
#
# Disc length: 4362 seconds
#
#
# Revision: 0
# Processed by: cddbd v1.5.2PL0 Copyright (c) Steve Scherf et al.
# Submitted via: FreeRIP 2.96 
#
DISCID=10110814
DTITLE=Cesar Menotti and Fabiano , Gian and Giovani , Nechivile , João Bosco and Vinicius - O Melhor de
DYEAR=1900
DGENRE=Country
TTITLE0=Leilão - Cesar Menotti and Fabiano
TTITLE1=Quero te encontrar - João Bosco and Vinicius
TTITLE2=Tentei te esquecer - Nechivile
TTITLE3=Te amo - Gian and Giovani
TTITLE4=Dois corações e uma história - Cesar Menotti and Fabiano
TTITLE5=Faz de conta - João Bosco and Vinicius
TTITLE6=Pago pra ver - Nechivile
TTITLE7=Porta bandeira - Gian and Giovani
TTITLE8=Caso marcado(Palavras de amor) - Cesar Menotti and Fabiano
TTITLE9=Magia - João Bosco and Vinicius
TTITLE10=Saudade matadeira - Nechivile
TTITLE11=Da pra ver no seu olhar - Gian and Giovani
TTITLE12=Amor sincero - Cesar Menotti and Fabiano
TTITLE13=Insegurança - João Bosco and Vinicius
TTITLE14=Coração - Nechivile
TTITLE15=Loira gelada morena quente - Gian and Giovani
TTITLE16=A primeira vez que eu te vi - Cesar Menotti and Fabiano
TTITLE17=Magia e misterio - João Bosco and Vinicius
TTITLE18=Amor sem fim - Nechivile
TTITLE19=Coice de vaca - Gian and Giovani
EXTD=
EXTT0=
EXTT1=
EXTT2=
EXTT3=
EXTT4=
EXTT5=
EXTT6=
EXTT7=
EXTT8=
EXTT9=
EXTT10=
EXTT11=
EXTT12=
EXTT13=
EXTT14=
EXTT15=
EXTT16=
EXTT17=
EXTT18=
EXTT19=
PLAYORDER=
